<?xml version="1.0" encoding="utf-8"?>
<!-- Generator: Adobe Illustrator 27.7.0, SVG Export Plug-In . SVG Version: 6.00 Build 0)  -->
<svg version="1.1" id="Layer_1" xmlns="http://www.w3.org/2000/svg" xmlns:xlink="http://www.w3.org/1999/xlink" x="0px" y="0px"
	 viewBox="0 0 419.4 108" style="enable-background:new 0 0 419.4 108;" xml:space="preserve">
<style type="text/css">
	.st0{fill:url(#SVGID_1_);}
	.st1{fill:url(#SVGID_00000116949949589581514670000016235609673456076470_);}
	.st2{fill:#12274A;}
	.st3{display:none;}
	.st4{display:inline;}
</style>
<g>
	<g>
		<g>
			<linearGradient id="SVGID_1_" gradientUnits="userSpaceOnUse" x1="364.6188" y1="70.4907" x2="352.5058" y2="70.4907">
				<stop  offset="0" style="stop-color:#E66028"/>
				<stop  offset="1" style="stop-color:#F3A51E"/>
			</linearGradient>
			<circle class="st0" cx="358.6" cy="70.5" r="6.1"/>
			
				<linearGradient id="SVGID_00000096769976818486169840000009479159055389553070_" gradientUnits="userSpaceOnUse" x1="383.3658" y1="58.7343" x2="316.65" y2="58.7343">
				<stop  offset="0" style="stop-color:#E66028"/>
				<stop  offset="1" style="stop-color:#F3A51E"/>
			</linearGradient>
			<path style="fill:url(#SVGID_00000096769976818486169840000009479159055389553070_);" d="M383.4,90l-12.7-12
				c4.7-6,7.9-13.8,8.1-23c0.3-11.1-5.4-21.4-14.3-27.5c6.5,6.2,10.6,15,10.6,24.7c0,18.9-15.3,34.2-34.2,34.2
				c-9.4,0-18-3.8-24.1-10C323,85,333.3,90.3,344,90c7.6-0.3,14.7-2.2,20.9-8.3l1.3,1.3c0,0,0,0,0,0l7.8,7L383.4,90z"/>
			<path class="st2" d="M364.5,27.5c-5.5-3.8-12.2-6.1-19.5-5.9C325.6,22,310.2,38,310.2,56.9c0,7.4,2.5,14.2,6.5,19.6
				c-6.2-6.2-10.1-14.8-10.1-24.3c0-18.9,15.3-34.2,34.2-34.2C350,18,358.3,21.6,364.5,27.5z"/>
		</g>
		<g>
			<path class="st2" d="M95.9,25h-26v65H62V25H36v-7h59.9V25z"/>
			<path class="st2" d="M121.5,18c18.7,0,23.8,10.7,23.8,19.3c0,9.8-6,15.1-12.9,17.6c5.2,3.4,8.8,9,17.6,22.9
				c3.1,4.9,4.6,7.1,8.2,12.1h-9.5l-6.9-10.9c-2.9-4.5-6-9.1-9.3-13.3c-4.6-5.9-8.7-8.8-16.4-8.8h-5.2V90h-7.9V18H121.5z M111.1,25
				v25.1h9.3c10.2,0,16.5-4.4,16.5-12.7c0-7.5-5.5-12.5-16.5-12.5H111.1z"/>
			<path class="st2" d="M171.1,90h-7.9V18h7.9V90z"/>
			<path class="st2" d="M247.6,90h-8.2l-10.5-23.1h-32.9L185.7,90h-8.2l31.9-72h5.5L247.6,90z M212.1,30L199,59.9h26.6L212.1,30z"/>
			<path class="st2" d="M271.9,18c18.7,0,23.8,10.7,23.8,19.3c0,9.8-6,15.1-12.9,17.6c5.2,3.4,8.8,9,17.6,22.9
				c3.1,4.9,4.6,7.1,8.2,12.1h-9.5l-6.9-10.9c-2.9-4.5-6-9.1-9.3-13.3c-4.6-5.9-8.7-8.8-16.4-8.8h-5.2V90h-7.9V18H271.9z M261.5,25
				v25.1h9.3c10.2,0,16.5-4.4,16.5-12.7c0-7.5-5.5-12.5-16.5-12.5H261.5z"/>
		</g>
	</g>
	<g>
		<path class="st2" d="M383.4,23.4c0,3-2.4,5.4-5.4,5.4c-3,0-5.4-2.4-5.4-5.4c0-3,2.4-5.4,5.4-5.4C380.9,18,383.4,20.4,383.4,23.4z
			 M373.5,23.4c0,2.5,2,4.5,4.5,4.5c2.5,0,4.5-2,4.5-4.5c0-2.5-2-4.5-4.5-4.5C375.5,18.9,373.5,20.9,373.5,23.4z M375.6,20.6h2
			c0.7,0,1.4,0,1.9,0.4c0.3,0.3,0.6,0.7,0.6,1.2c0,0.6-0.5,1.6-1.7,1.6c0.3,0.1,0.6,0.3,1.3,1.5l0.7,1.1h-1.1l-0.5-0.9
			c-0.7-1.2-1-1.5-1.7-1.5h-0.6v2.5h-0.9V20.6z M376.5,23.1h1.1c0.4,0,1.4,0,1.4-0.9c0-0.9-0.9-0.9-1.5-0.9h-1.1V23.1z"/>
	</g>
</g>
<g class="st3">
	<path class="st4" d="M75.8,125.8h-2.5v-13.7l-5.4,6.8h-0.5l-5.5-6.8v13.7h-2.5v-17.5h2.4l5.8,7.2l5.8-7.2h2.3V125.8z"/>
	<path class="st4" d="M98,110.5h-7.4v5.3h7.2v2.2h-7.2v5.5h7.7v2.3H88.1v-17.5h10V110.5z"/>
	<path class="st4" d="M116,108.2c1.6,0,4.5,0,6.8,1.8c2,1.5,3.4,4,3.4,7c0,4.4-3.1,6.8-4.2,7.5c-2.1,1.3-4.6,1.3-6.4,1.3h-5.6v-17.5
		H116z M112.6,110.5v13h3.2c1.3,0,3.4-0.1,4.9-1c1.8-1.1,2.9-3.2,2.9-5.6c0-2.1-1-4.6-3.7-5.8c-1.4-0.6-2.6-0.6-4.2-0.6H112.6z"/>
	<path class="st4" d="M140.4,125.8h-2.5v-17.5h2.5V125.8z"/>
	<path class="st4" d="M167.8,112.1c-1.9-1.1-3.9-1.7-6.1-1.7c-4.2,0-6.9,3.1-6.9,6.7c0,3.3,2.3,6.6,7,6.6c2.2,0,4.4-0.7,6.2-2v2.8
		c-2,1.1-4.1,1.5-6.4,1.5c-6.5,0-9.4-4.9-9.4-9c0-4.8,3.9-9,9.5-9c2.7,0,5,1,6.1,1.4V112.1z"/>
	<path class="st4" d="M195.2,125.8h-2.6l-2.3-5.2h-7.5l-2.2,5.2H178l7.5-17.6h1.8L195.2,125.8z M189.2,118.3l-2.8-6.4l-2.6,6.4
		H189.2z"/>
	<path class="st4" d="M208.2,123.5h7.9v2.3h-10.4v-17.5h2.5V123.5z"/>
	<path class="st4" d="M257.8,124.6c-1.3,0.6-3.5,1.4-6.4,1.4c-6.8,0-9.6-4.9-9.6-8.8c0-4.6,3.5-9.2,9.5-9.2c2.5,0,4.3,0.7,6.2,1.5
		v2.6c-2.9-1.7-5.2-1.8-6.2-1.8c-3.5,0-6.8,2.6-6.8,6.8c0,3.9,2.8,6.8,7,6.8c1.3,0,2.2-0.2,3.8-0.8v-3.7H252v-2.2h5.9V124.6z"/>
	<path class="st4" d="M274.5,108.2c0.8,0,1.9,0.1,3,0.6c1.9,0.8,2.8,2.5,2.8,4.3c0,2-1,3.6-2.9,4.3c1.6,1.1,2.6,2.7,3.9,4.8
		c0.7,1.2,1.2,1.8,2.4,3.5h-3c-0.6-0.8-3-4.7-3.6-5.4c-1.7-2.2-2.6-2.2-3.8-2.2h-0.7v7.6h-2.5v-17.5H274.5z M272.6,110.4v5.5h1
		c0.4,0,1.7,0,2.4-0.3c1.2-0.5,1.7-1.6,1.7-2.5c0-1-0.5-2-1.3-2.3c-0.6-0.3-1.5-0.4-3-0.4H272.6z"/>
	<path class="st4" d="M310.6,117c0,5-3.9,9-9.6,9c-5.5,0-9.3-4.1-9.3-8.9c0-4.7,3.4-9.1,9.4-9.1C307,108,310.6,112.3,310.6,117z
		 M294.4,117.1c0,4,3.1,6.6,6.8,6.6c1.9,0,3.9-0.8,5.1-2.1c1.1-1.2,1.7-3.1,1.7-4.6c0-2.9-2.2-6.6-6.8-6.6
		C296.4,110.4,294.4,114.1,294.4,117.1z"/>
	<path class="st4" d="M337,118.2c0,1.7,0,4.1-2,5.9c-1.6,1.4-3.5,1.9-5.5,1.9c-2.5,0-5.2-0.8-6.6-3.1c-1-1.5-1-3.6-1-4.8v-10h2.5v10
		c0,2.3,0.2,3.2,1.1,4.1c0.7,0.8,1.9,1.5,3.9,1.5c2.8,0,4.1-1.5,4.5-2.3c0.3-0.6,0.5-1.5,0.5-3.3v-10h2.5V118.2z"/>
	<path class="st4" d="M353.4,108.2c2.1,0,3.7,0,5.2,1.5c0.8,0.8,1.4,1.9,1.4,3.5c0,0.9-0.2,2.3-1.5,3.5c-1.1,1.1-2.5,1.4-5.2,1.4
		h-1.9v7.6h-2.5v-17.5H353.4z M351.4,110.4v5.5h2c1,0,2,0,2.8-0.5c0.7-0.4,1.2-1.2,1.2-2.3c0-0.6-0.2-1.4-0.8-2
		c-0.8-0.7-1.5-0.7-3.3-0.7H351.4z"/>
</g>
</svg>
